# xmcd
#
# Track frame offsets:
#	150
#	20450
#	38945
#	58652
#	76445
#	101267
#	114337
#	135112
#	150862
#	174007
#	191242
#	206322
#	228907
#
# Disc length: 3322 seconds
#
# Revision: 17
# Processed by: cddbd v1.5.2PL0 Copyright (c) Steve Scherf et al.
# Submitted via: EasyCDDAExtractor 5.0.6
#
DISCID=8e0cf80d
DTITLE=Gza - Liquid Swords
DYEAR=1995
DGENRE=Hip Hop
TTITLE0=Liquid Swords
TTITLE1=Duel Of The Iron Mic (Feat. Inspectah Deck, Masta Killa and Ol' Dirty Ba
TTITLE1=stard)
TTITLE2=Living In The World Today (Feat. Method Man and Rza)
TTITLE3=Gold
TTITLE4=Cold World (Feat. Inspectah Deck)
TTITLE5=Labels
TTITLE6=4th Chamber (Feat. Ghostface Killah, Killah Priest and Rza)
TTITLE7=Shadowboxin' (Feat. Method Man)
TTITLE8=Hell's Wind Staff_Killah Hills 10304
TTITLE9=Investigative Reports (Feat. Ghostface Killah, Raekwon and U-God)
TTITLE10=Swordsman
TTITLE11=I Gotcha Back (Feat. Rza)
TTITLE12=B.I.B.L.E. (Basic Instructions Before Leaving Earth) (Feat. Killah Pr
TTITLE12=iest)
EXTD=
EXTT0=
EXTT1=
EXTT2=
EXTT3=
EXTT4=
EXTT5=
EXTT6=
EXTT7=
EXTT8=
EXTT9=
EXTT10=
EXTT11=
EXTT12=
PLAYORDER=
